<svg xmlns="http://www.w3.org/2000/svg" width="270" height="270" fill="none"><path fill="url(#a)" d="M0 0h270v270H0z"/><defs><filter id="b" color-interpolation-filters="sRGB" filterUnits="userSpaceOnUse" height="270" width="270"><feDropShadow dx="0" dy="1" stdDeviation="2" flood-opacity=".225" width="200%" height="200%"/></filter></defs><path d="M11.639.893c-1.942-.085-3.46 1.222-3.46 1.222a.5.5 0 0 0 .442.87s1.722-.435 3.025.869c.074.073.229.48.229.896 0 .417-.155.823-.229.896L8.734 8.56h-.002a.5.5 0 0 0-.24-.059.5.5 0 0 0-.346.146l-8 8a.5.5 0 0 0 0 .708l2 2a.5.5 0 0 0 .708 0l8-8a.5.5 0 0 0 .087-.588l3.809-3.809.543.543-.147.146a.5.5 0 0 0 0 .708l1.5 1.5a.5.5 0 0 0 .708 0l2.5-2.5a.5.5 0 0 0 0-.708l-1.5-1.5a.5.5 0 0 0-.708 0l-.146.147-.559-.559v-.002a.5.5 0 0 0-.087-.586l-1.5-1.5a.5.5 0 0 0-.588-.087l-.412-.413C13.49 1.284 12.52.931 11.639.893zm-.043 1c.661.028 1.35.26 2.05.96l.75.75a.5.5 0 0 0 .588.088l.825.825a.5.5 0 0 0 0 .002.5.5 0 0 0 .087.586l1.25 1.25a.5.5 0 0 0 .708 0L18 6.207l.793.793L17 8.793 16.207 8l.147-.146a.5.5 0 0 0 0-.708l-1.25-1.25a.5.5 0 0 0-.708 0l-4.146 4.147-.793-.793 2.897-2.896c.426-.427.521-1.02.521-1.604 0-.583-.095-1.177-.521-1.604-.575-.574-1.195-.836-1.791-1.001.346-.102.644-.27 1.033-.252zM8.5 9.707 9.793 11 2.5 18.293 1.207 17 8.5 9.707z" style="stroke:none;stroke-width:0" transform="matrix(3 0 0 3 15 15)" fill="#fff"/><linearGradient id="a" x1="0" y1="0" x2="270" y2="270" gradientUnits="userSpaceOnUse"><stop stop-color="#020024"/><stop offset="1" stop-color="#a42e03" stop-opacity=".99"/></linearGradient><text x="32.5" y="231" font-size="27" fill="#fff" filter="url(#b)" font-family="Plus Jakarta Sans,DejaVu Sans,Noto Color Emoji,Apple Color Emoji,sans-serif" font-weight="bold">
		tomi.builder
	</text></svg>